<?xml version="1.0" encoding="utf-8"?>
<!-- Generator: Adobe Illustrator 23.1.0, SVG Export Plug-In . SVG Version: 6.00 Build 0)  -->
<svg version="1.1" id="Layer_1" xmlns="http://www.w3.org/2000/svg" xmlns:xlink="http://www.w3.org/1999/xlink" x="0px" y="0px"
	 viewBox="0 0 905.58 774.14" style="enable-background:new 0 0 905.58 774.14;" xml:space="preserve">
<style type="text/css">
	.st0{fill:none;}
	.st1{fill:#FFFFFF;}
</style>
<g id="Layer_4">
</g>
<g>
	<path class="st0" d="M483.38,137.72c-0.52-6.04-1.52-11.56-2.91-16.63c0.27-0.07,0.53-0.12,0.8-0.19l-0.69,0.13
		c-0.04-0.02-0.08-0.03-0.12-0.05c0.01,0.03,0.02,0.06,0.03,0.09c-56.99,13.99-122.95,38.01-178.28,78.72
		c-85.02,62.55-102.47,111.59-104.38,131.43c-3.1,32.12,9.91,75.98,73.25,72.43c54.57-3.06,104.67-43.52,136.99-76.81l0,0
		c0.52-0.53,1.02-1.06,1.52-1.57l0.02-0.02c14.18-14.76,24.77-27.94,30.59-35.58c13.43-17.63,32.38-50.48,40.29-93.32
		c0.19-0.01,0.38-0.01,0.57-0.02c0.33-1.94,0.62-3.8,0.87-5.59l0,0c-0.25,1.79-0.54,3.65-0.87,5.59c-0.19,0.01-0.39,0.01-0.58,0.02
		c0.34-1.87,0.67-3.77,0.97-5.68C484.03,174.29,484.98,156.56,483.38,137.72z M407.03,313.84l0.03-56.9
		c0-45.79-30.81-54.12-66.61-54.12v-8.33c66.62,0,69.95,2.5,104.92,2.5c7.26,0,16.5-0.13,24.45-0.35
		C459.76,251.89,422.89,296.82,407.03,313.84z"/>
	<path class="st0" d="M224.03,712.03c-13.5-7.37-22.28-12.23-36.74-17.26c-29.17-10.13-49.75-11.76-49.75-11.76
		c-73.87-7.88-89.2,21.31-89.2,21.31c-22.3,48.19,72.01,38.46,72.01,38.46C160.81,739.43,195.47,727.25,224.03,712.03
		c0.19,0.11,0.4,0.22,0.6,0.33C224.43,712.25,224.23,712.14,224.03,712.03C224.03,712.03,224.03,712.03,224.03,712.03z"/>
	<path class="st0" d="M843.24,42.4c-33.09-1.6-64.4,30.47-80.57,50.41h0c-0.11,0.14-0.24,0.29-0.36,0.44
		c0.12-0.14,0.25-0.29,0.37-0.43c6.91,0.53,11.92,0.92,13.64,1.03c3.8,0.23,23.46,2.1,44.28,0.37c10.47-0.88,24.15-2.01,34.6-6.33
		c11.83-4.89,19.84-13.38,20.09-21.58C876.08,39.8,843.24,42.4,843.24,42.4z"/>
	<path d="M609.82,196.36c-17.6-2.2-35.37-2.7-53.71-2.7c-6.7,0-12.65,0.23-21.27,0.53c-0.29,3.96-0.71,9.21-1.24,14.57
		c3.53-0.07,5.29-0.12,9.19-0.12c20.4,0,37.76,2.81,52.39,7.99C598.6,212.13,604.62,203.14,609.82,196.36z"/>
	<path d="M340.45,194.49v8.33c35.8,0,66.61,8.33,66.61,54.12l-0.03,56.9c15.86-17.02,52.73-61.96,62.79-117.21
		c-7.95,0.22-17.19,0.35-24.45,0.35C410.4,196.99,407.07,194.49,340.45,194.49z"/>
	<path d="M241.25,721.26L241.25,721.26c-0.03-0.02-0.06-0.03-0.09-0.05C241.18,721.23,241.21,721.24,241.25,721.26z"/>
	<path d="M882.69,44.5c-7.5-6.53-19.65-11.66-38.98-13.24c-47.27-3.87-94.97,31.89-122.99,57.9c-15.07-1.02-28.93-1.83-35.71-1.83
		c-15.54,0-95.62-1.02-174.67,13.58c0,0,0,0.01,0.01,0.01c-0.06,0.01-0.11,0.02-0.17,0.03l0.16-0.03
		c-6.86-12.34-16.45-23.37-29.74-31.65c-22.06-13.76-42.92-19.21-61.5-19.95c-18.58-0.75-29.67,1.52-44.46,6.54
		c-9.42,3.2-21.27,10.49-26.23,14.51c-11.59,9.38-24.84,23.44-29.05,38.26c-0.7,2.47,3,3.72,4.12,1.42
		c7.64-15.68,28.35-42.66,80.92-44.95c0,0,51.8,0.66,71.95,43.18l0.19-0.04c-0.06,0.01-0.11,0.03-0.17,0.04
		c0.03,0.07,0.05,0.12,0.07,0.19c-0.03-0.06-0.05-0.13-0.08-0.19c-1.69,0.42-3.37,0.86-5.05,1.3
		c-89.66,23.63-162.76,51.43-242.05,134.21c0,0-68.76,65.48-46.46,135.91c0,0,20.44,73.2,149.13,46.8
		c27.08-5.56,51.14-16.83,72.3-31.39l-0.09-0.13c0,0,0.01-0.01,0.01-0.01l0.08,0.12c1.97-1.35,3.91-2.73,5.83-4.14l0.06-0.06
		c11.75-8.99,38.96-32.01,63.78-66.63c1.49-2.12,2.95-4.25,4.37-6.37c-1.42,2.12-2.88,4.24-4.37,6.37
		c5.62-7.84,11.11-16.28,16.27-25.31c1.67-2.85,3.28-5.67,4.82-8.47c0.39-0.7,0.78-1.41,1.16-2.11l0.01,0.01
		c9.91-18.23,17.1-35.04,21.67-48.11c3.51-11.02,5.59-21.7,6.83-30.43c0.03-0.33,0.05-0.66,0.08-0.97c0.01-0.08,0-0.12,0.01-0.2
		c0.09-0.9,0.15-1.62,0.24-2.54c0.3-3.4,0.7-7.37,1.04-11.91c0,0,0.01,0,0.01,0c0.16-2.38,0.3-4.89,0.4-7.49l-0.01,0
		c0.86-20.8-0.35-48.09-9.9-72.53l45.36-8.32c37.96-4.66,93.57-3.92,143.96-1.93c-0.03,0.03-0.06,0.06-0.09,0.09
		c-0.05,0-0.1,0-0.14-0.01c-1.71,1.8-3.22,3.42-4.52,4.83c-0.61,0.64-1.16,1.21-1.61,1.68c0.03,0,0.05,0,0.08,0
		c-1.85,2.06-3.08,3.49-3.61,4.11c-2.02,2.38-11.61,10.14-29.7,29.99c-10.67,11.71-24.29,27.62-41.08,49.13l0.19,0.15
		c0,0,0,0,0,0.01l-0.19-0.15c-1.09,1.39-2.18,2.81-3.3,4.24c0,0,0.01,0,0.01,0c-5.29,6.83-10.88,14.2-16.76,22.15
		c0.03,0.01,0.06,0.03,0.1,0.04c0.44-0.58,0.92-1.21,1.42-1.86c-0.49,0.65-0.97,1.28-1.41,1.86l-112.78,167.2v-0.01v-73.33
		c-34.61,57.26-80.09,89.23-84.93,92.53v104.73v0.01c-0.03,0.04-0.06,0.08-0.08,0.12v96.71c0.01-0.02,0.04-0.04,0.06-0.07v80.67
		c0,29.69-12.95,43.62-31.81,49.75c0.43-0.1,0.68-0.17,0.68-0.17l0,0c-0.04,0.01-0.27,0.07-0.66,0.17
		c-10.24,3.33-22.2,4.37-34.8,4.37l0,0l-0.01,0c12.6,0,24.56-1.04,34.8-4.37c-5.18,1.22-40.32,8.57-83.04-6.12
		c-14.45-4.97-27.07-11.18-38.2-17.37c0,0,0,0,0.01,0c0,0,0,0,0,0c7.77-3.67,15.85-7.65,24.28-11.96
		c50.8-25.96,88.18-54.5,118.68-84.69v-92.86c-39.82,55.8-71.91,98.4-83.37,112.68c-11.56,14.41-37.64,42.85-77.21,66.52
		c-0.75-0.45-1.5-0.91-2.22-1.35c-5.66-3.42-20.94-10.28-26.95-13.28c-22.3-11.12-67.36-23.17-110.11-19
		c-42.74,4.17-70.15,28.73-72.48,46.8c-2.32,18.07,5.57,36.6,48.32,38.92c37.73,2.04,81.26,3.36,168.28-35.88
		c3.51,1.83,7.32,3.78,11.52,5.88c0,0,29.07,17.19,62.86,22.1c16.13,2.34,36.65,3.54,61.98,1.99c0.19,0,0.38-0.01,0.56-0.01
		c0.07,0,0.14-0.01,0.21-0.01c34.47-0.68,46.85-2.16,76.97-2.16c44.96,0,89.1,4.16,129.9,4.16c128.23,0,203.17-45.8,203.17-154.04
		c0-97.42-91.59-139.89-160.71-144.88v-0.83c71.61-14.99,121.57-56.62,121.57-127.4c0-55.69-24.96-88.37-63.82-107.79
		c-9.31,13.93-26.82,41.01-33.15,50.59c7.71,17.59,9.57,37.27,9.57,59.7c0,77.44-39.14,124.07-117.41,124.07l-8.69-0.08l-9.48,15.1
		l26.48-0.04c84.1,0,141.55,45.8,141.55,142.39c0,76.61-39.97,128.23-112.41,128.23c-75.77,0-89.93-20.82-89.93-86.6V499.03
		c0.01-0.01,0.01-0.02,0.02-0.03v-0.02c4.84-6.9,10.07-14.59,15.64-22.97c1.88-2.83,3.81-5.75,5.76-8.73l132.51-209.4
		c9.88-15.34,19.73-30.44,29.44-45.04c1.93-2.9,3.86-5.79,5.77-8.65l-0.01,0c10.88-16.21,21.54-31.7,31.82-46.09
		c13.54-18.94,26.43-35.99,38.29-50.23c0,0,0.35-0.53,0.99-1.47c14.13,0.75,29.84,1.54,39.92,2.1c0,0,21.67,2,60.82-1.57
		c20.5-1.87,32.95-12.04,37.21-23.44C890.64,83.47,901.51,60.89,882.69,44.5z M480.48,196.35c-7.91,42.84-26.86,75.69-40.29,93.32
		c-5.82,7.64-16.41,20.82-30.59,35.58l-0.02,0.02c-0.5,0.51-1,1.04-1.52,1.57l0,0c-32.32,33.29-82.42,73.75-136.99,76.81
		c-63.34,3.55-76.35-40.31-73.25-72.43c1.91-19.84,19.36-68.88,104.38-131.43c55.33-40.71,121.29-64.73,178.28-78.72
		c-0.01-0.03-0.02-0.06-0.03-0.09c0.04,0.02,0.08,0.03,0.12,0.05l0.69-0.13c-0.27,0.07-0.53,0.12-0.8,0.19
		c1.39,5.07,2.39,10.59,2.91,16.63c1.6,18.84,0.65,36.57-1.94,52.95c-0.3,1.91-0.63,3.81-0.97,5.68 M224.03,712.03
		c-28.56,15.22-63.22,27.4-103.68,30.75c0,0-94.31,9.73-72.01-38.46c0,0,15.33-29.19,89.2-21.31c0,0,20.58,1.63,49.75,11.76
		C201.76,699.8,210.54,704.66,224.03,712.03C224.03,712.03,224.03,712.03,224.03,712.03c0.2,0.11,0.4,0.22,0.6,0.33
		C224.43,712.25,224.23,712.14,224.03,712.03z M855.2,87.89c-10.45,4.32-24.13,5.45-34.6,6.33c-20.82,1.73-40.48-0.14-44.28-0.37
		c-1.72-0.11-6.73-0.5-13.64-1.03c-0.12,0.15-0.25,0.29-0.37,0.43c0.12-0.15,0.24-0.3,0.36-0.44h0
		c16.17-19.94,47.48-52.01,80.57-50.41c0,0,32.84-2.6,32.05,23.91C875.04,74.51,867.03,83,855.2,87.89z"/>
	<path class="st1" d="M517.83,240.27"/>
	<path class="st1" d="M527.87,221.75"/>
</g>
<path d="M771.31,51.24c0,0-53.02,28.65-112.93,102.33"/>
<path d="M516.53,114.19c0,0,87.78-16.26,189.09-10.16l-6.69-4.51l-102.7,0.56l-64.19,7.53L516.53,114.19z"/>
<path d="M752.69,106.4c0,0,44.29,4.56,70.71,3.63c26.42-0.93,50.79-3.91,60.84-16.56"/>
<path d="M762.68,92.82c0,0,49.56,3.63,74.12-0.28c24.56-3.91-23.07,10.79-23.07,10.79l-39.26-2.98"/>
</svg>
