<?xml version="1.0" encoding="utf-8"?>
<!-- Generator: Adobe Illustrator 23.1.0, SVG Export Plug-In . SVG Version: 6.00 Build 0)  -->
<svg version="1.1" xmlns="http://www.w3.org/2000/svg" xmlns:xlink="http://www.w3.org/1999/xlink" x="0px" y="0px"
	 viewBox="0 0 905.58 774.14" style="enable-background:new 0 0 905.58 774.14;" xml:space="preserve">
<style type="text/css">
	.st0{fill:none;}
	.st1{fill:#FFFFFF;}
</style>
<g id="Layer_1">
</g>
<g id="Layer_4">
</g>
<g id="Layer_2">
	<g>
		<path class="st0" d="M558.91,106.18c-13.45,1.65-28.93,3.98-45.78,7.2c9.94,24.73,11.18,52.53,10.31,73.64l9.9,0.61
			c-0.05,0.84-0.2,3.24-0.44,6.51c8.62-0.3,16.51-0.5,23.22-0.5c18.34,0,36.62,0.92,54.22,3.11c2.96-3.87,5.49-7.15,6.76-8.73
			l7.63,6.07c45.24-57.97,67.56-75.33,70.77-79.12c0.97-1.14,4.35-5.07,9.66-10.64C654.17,102.28,597.45,101.45,558.91,106.18z"/>
		<path class="st0" d="M640.75,266.26c-40.42,63.05-80.97,129.32-113.83,180.5l5.63-8.51l8.34,5.52l-5.86,8.85h9.42
			c78.27,0,117.41-46.63,117.41-124.07c0-22.43-3.41-43.05-11.1-60.65c-1.4,2.12-2.23,3.39-2.29,3.47L640.75,266.26z"/>
		<path class="st0" d="M406.98,627.8h-10v-9.09c-30.5,30.19-67.88,58.73-118.68,84.69c-8.44,4.31-16.52,8.29-24.29,11.96
			c11.13,6.19,23.75,12.4,38.2,17.37c42.72,14.69,77.86,7.34,83.04,6.12c18.86-6.14,31.81-20.07,31.81-49.75v-80.68
			c-0.03,0.03-0.06,0.06-0.08,0.09V627.8z"/>
		<path class="st0" d="M507.65,476.34c-5.57,8.38-10.8,16.09-15.65,22.98v152.3c0,65.78,14.16,86.6,89.93,86.6
			c72.44,0,112.41-51.62,112.41-128.23c0-96.59-57.45-142.39-141.55-142.39h-27.66l-9.34,14.12L507.65,476.34z"/>
		<path class="st0" d="M399.27,319.91C399.27,319.91,399.27,319.91,399.27,319.91L399.27,319.91L399.27,319.91
			c0.15-0.13,3.13-2.89,7.8-7.9v-55.07c0-45.8-30.81-54.12-66.61-54.12v-8.33c66.61,0,69.94,2.5,104.92,2.5
			c7.26,0,15-0.14,22.96-0.36c0.44-2.41,0.83-4.83,1.17-7.28l9.42,1.3c2.59-16.38,3.54-34.11,1.94-52.96
			c-0.51-6.04-1.51-11.56-2.91-16.63c-56.99,13.99-122.95,38.01-178.28,78.72C214.66,262.32,197.21,311.36,195.3,331.2
			c-3.1,32.12,9.91,75.98,73.25,72.43c54.58-3.06,104.68-43.53,137-76.82l-2.91-3.2L399.27,319.91z"/>
		<path class="st0" d="M137.54,683.01c-73.87-7.88-89.2,21.31-89.2,21.31c-22.3,48.19,72.01,38.46,72.01,38.46
			c40.46-3.35,75.13-15.53,103.69-30.74c-13.5-7.37-22.28-12.24-36.75-17.26C158.11,684.64,137.54,683.01,137.54,683.01z"/>
		<path class="st0" d="M600.84,225.7l-7.96-6.04c0.16-0.21,1.01-1.33,2.3-3.03c-14.63-5.18-31.99-7.99-52.39-7.99
			c-3.91,0-7.62,0.01-11.13,0.09c-0.88,8.94-2.07,18.18-3.46,22.23l-9.36-3.23c-3.63,13.68-12.11,35.99-25.68,60.94l8.71,4.48
			c-3.15,6.13-6.46,12.01-9.87,17.66v76.93c9.42-14.27,18.75-28.63,27.89-42.95C551.38,295.44,578.26,256.46,600.84,225.7z"/>
		<path class="st0" d="M820.59,94.22c10.47-0.87,24.15-2.01,34.6-6.33c11.83-4.89,19.85-13.38,20.09-21.58
			c0.8-26.51-32.05-23.91-32.05-23.91c-33.09-1.6-64.4,30.47-80.57,50.41c6.91,0.54,11.92,0.93,13.64,1.03
			C780.11,94.08,799.77,95.95,820.59,94.22z"/>
		<path d="M445.37,196.99c-34.97,0-38.3-2.5-104.92-2.5v8.33c35.8,0,66.61,8.33,66.61,54.12v55.07
			c15.86-17.02,51.2-60.13,61.26-115.38C460.37,196.85,452.63,196.99,445.37,196.99z"/>
		<path d="M487.18,299.26c-4.88,8.32-10.3,16.82-16.27,25.31C476.53,316.73,482.02,308.29,487.18,299.26z"/>
		<path d="M492,310.81c-34.61,57.26-80.09,89.23-84.93,92.53v108.33c26.68-37.65,56.17-80.34,84.93-123.93V310.81z"/>
		<path d="M542.79,208.64c20.4,0,37.76,2.81,52.39,7.99c3.42-4.5,9.95-13.08,15.15-19.86c-17.6-2.2-35.88-3.11-54.22-3.11
			c-6.7,0-14.6,0.2-23.22,0.5c-0.29,3.96-0.71,9.21-1.24,14.57C535.18,208.66,538.89,208.64,542.79,208.64z"/>
		<path d="M661.87,328.55c0,77.44-39.14,124.07-117.41,124.07h-9.42l-9.92,14.99h27.66c84.1,0,141.55,45.8,141.55,142.39
			c0,76.61-39.97,128.23-112.41,128.23c-75.77,0-89.93-20.82-89.93-86.6v-152.3c-0.94,1.34-1.87,2.65-2.78,3.92
			c-25.73,36.09-50.22,71.56-82.16,105.17v80.68c0,29.69-12.95,43.62-31.81,49.75c0.43-0.1,0.68-0.17,0.68-0.17l15.26,11.51
			c-4.49,0.42-8.83,0.76-13.05,1.02c34.66-0.68,47.02-2.17,77.21-2.17c44.96,0,89.1,4.16,129.9,4.16
			c128.23,0,203.17-45.8,203.17-154.04c0-97.42-91.59-139.89-160.71-144.88v-0.83c71.61-14.99,121.57-56.62,121.57-127.4
			c0-55.69-26.15-89.32-65.01-108.74c-9.31,13.93-27.19,41.01-33.52,50.59C658.45,285.49,661.87,306.12,661.87,328.55z"/>
		<polygon class="st1" points="402.63,323.61 399.27,319.91 399.27,319.91 		"/>
		<path d="M507.44,476.2l5.69-8.6H492v31.72c4.84-6.9,10.08-14.6,15.65-22.98L507.44,476.2z"/>
		<path d="M478.92,190.65l0.48,0.07c-0.25,1.79-0.54,3.66-0.87,5.6c14.98-0.51,30.3-1.22,44.31-1.78c0.2-2.7,0.38-5.25,0.52-7.51
			l0.08,0.01c0.87-21.11-0.37-48.92-10.31-73.64c-11.19,2.14-22.98,4.67-35.18,7.67c1.39,5.07,2.39,10.59,2.91,16.63
			C482.46,156.54,481.51,174.27,478.92,190.65z"/>
		<path d="M640.75,266.26l-0.61-0.4c0.33-0.5,2.39-3.63,5.44-8.24c-9.16-15.83-22.5-28.56-40.8-37.07
			c-2.31,3.04-3.87,5.09-3.92,5.16l-0.01-0.01c-22.58,30.75-49.46,69.74-80.95,119.09c-9.13,14.31-18.47,28.68-27.89,42.95v64.88
			h31.05l3.87-5.85C559.77,395.59,600.33,329.31,640.75,266.26z"/>
		<path d="M882.22,44.83c-7.5-6.53-19.65-11.66-38.98-13.24c-47.36-3.88-95.16,32.03-123.16,58.05c15.24,1.05,31.4,2.3,42.59,3.17
			c16.17-19.94,47.48-52.01,80.57-50.41c0,0,32.84-2.6,32.05,23.91c-0.25,8.2-8.26,16.69-20.09,21.58
			c-10.45,4.32-24.13,5.45-34.6,6.33c-20.82,1.73-40.48-0.14-44.28-0.37c-1.72-0.11-6.73-0.5-13.64-1.03
			c-5.09,6.27-8.68,11.34-10.35,13.79c15.13,0.81,28.71,1.6,39.82,2.21c0,0,21.92,2.68,60.82-1.57
			c20.46-2.23,32.95-12.04,37.21-23.44C890.17,83.8,901.04,61.22,882.22,44.83z"/>
		<path d="M278.3,703.4c50.8-25.96,88.18-54.5,118.68-84.69v-92.86c-39.82,55.8-71.91,98.4-83.37,112.68
			c-11.56,14.41-37.64,42.85-77.21,66.52c5.42,3.27,11.28,6.79,17.61,10.31C261.78,711.69,269.86,707.71,278.3,703.4z"/>
		<path d="M720.08,89.64c-5.92,5.5-10.96,10.56-14.91,14.71c16.6,0.67,32.6,1.47,47.15,2.25c1.67-2.44,5.26-7.51,10.35-13.79
			C751.48,91.94,735.32,90.69,720.08,89.64z"/>
		<path d="M120.35,742.78c0,0-94.31,9.73-72.01-38.46c0,0,15.33-29.19,89.2-21.31c0,0,20.58,1.63,49.75,11.76
			c14.47,5.03,23.25,9.89,36.75,17.26c4.26-2.27,8.39-4.6,12.37-6.98c-0.75-0.45-1.5-0.91-2.23-1.35
			c-5.66-3.42-20.94-10.28-26.95-13.28c-22.3-11.12-67.36-23.17-110.11-19c-42.74,4.17-70.15,28.73-72.48,46.8
			c-2.32,18.07,5.57,36.6,48.32,38.92c37.73,2.04,81.26,3.36,168.29-35.88c-6.71-3.5-12.28-6.53-17.22-9.23
			C195.47,727.25,160.81,739.43,120.35,742.78z"/>
		<path d="M407.07,608.41v-96.74c-0.03,0.04-0.06,0.08-0.08,0.12v96.71C407.01,608.47,407.04,608.44,407.07,608.41z"/>
		<path d="M340.45,743.22c12.6,0,24.56-1.04,34.8-4.37c-5.18,1.22-40.32,8.57-83.04-6.12c-14.45-4.97-27.07-11.18-38.2-17.37
			c-4.36,2.06-8.61,4.03-12.77,5.9c3.51,1.83,7.32,3.78,11.52,5.88c0,0,29.07,17.19,62.86,22.1c16.25,2.36,36.94,3.56,62.52,1.96
			c-10.26,0.2-22.48,0.33-37.7,0.33V743.22z"/>
		<path d="M477.61,69.58c-22.06-13.76-42.92-19.21-61.5-19.95c-18.58-0.75-29.67,1.52-44.46,6.54c-9.42,3.2-21.27,10.49-26.23,14.51
			c-11.59,9.38-24.84,23.44-29.05,38.26c-0.7,2.47,3,3.72,4.12,1.42c7.64-15.68,28.35-42.66,80.92-44.95c0,0,51.8,0.66,71.95,43.18
			c11.18-2.81,22.57-5.25,33.99-7.36C500.49,88.89,490.9,77.86,477.61,69.58z"/>
		<path d="M236.4,705.05c-3.98,2.38-8.11,4.72-12.37,6.98c4.94,2.7,10.5,5.73,17.22,9.23c4.16-1.87,8.41-3.84,12.77-5.9
			C247.68,711.84,241.83,708.33,236.4,705.05z"/>
		<path d="M695.5,114.98c-3.21,3.79-25.54,21.15-70.77,79.12l0.19,0.15c-0.7,0.88-1.83,2.34-3.22,4.13
			c19.09,3.06,37.17,7.78,53.39,14.67c2.63-3.94,4.7-7.03,5.83-8.67l0.2,0.14c25.19-37.55,49.24-71.26,70.12-96.33
			c0,0,0.37-0.57,1.07-1.59c-14.56-0.78-30.55-1.58-47.15-2.25C699.85,109.91,696.47,113.84,695.5,114.98z"/>
		<path d="M521.56,209.19c-18.76,1.48-29.56,6.93-29.56,26.94v54.33c0.33-0.62,0.65-1.24,0.98-1.87l0.19,0.1
			c13.57-24.95,22.05-47.27,25.68-60.94l-0.09-0.03C519.72,224.88,520.71,217.46,521.56,209.19z"/>
		<path d="M558.91,106.18c38.53-4.73,95.26-3.9,146.25-1.84c3.96-4.15,8.99-9.2,14.91-14.71c-15.97-1.1-30.92-1.99-38.05-1.99
			c-15.54,0-95.62-1.02-174.67,13.58c2.19,3.93,4.1,8,5.77,12.15C529.98,110.16,545.46,107.83,558.91,106.18z"/>
		<path d="M407.07,390.94v-64.63c-0.61,0.58-0.98,0.92-1.07,1l-0.45-0.5c-32.32,33.29-82.42,73.76-137,76.82
			c-63.34,3.55-76.35-40.31-73.25-72.43c1.91-19.84,19.36-68.88,104.38-131.43c55.33-40.71,121.29-64.73,178.28-78.72
			c-1.24-4.51-2.78-8.66-4.59-12.46c-1.69,0.42-3.37,0.86-5.05,1.3c-89.66,23.63-162.76,51.43-242.05,134.21
			c0,0-68.76,65.48-46.46,135.91c0,0,20.44,73.2,149.13,46.8c27.08-5.56,51.14-16.83,72.3-31.39l-0.09-0.13
			C401.26,395.2,403.42,393.73,407.07,390.94z"/>
		<path d="M513.14,113.38c-1.67-4.15-3.58-8.22-5.77-12.15c-11.42,2.11-22.81,4.55-33.99,7.36c1.8,3.81,3.35,7.95,4.59,12.46
			C490.16,118.06,501.95,115.52,513.14,113.38z"/>
		<path d="M489.23,503.25c0.91-1.28,1.84-2.59,2.78-3.92V467.6h21.13l9.92-14.99H492v-64.88c-28.76,43.59-58.25,86.28-84.93,123.93
			v96.74C439,574.8,463.49,539.33,489.23,503.25z"/>
		<path d="M492,236.12c0-20,10.79-25.46,29.56-26.94c0.49-4.84,0.93-9.97,1.29-14.65c-14.01,0.56-29.34,1.27-44.31,1.78
			c-3.91,22.83-14.12,55.93-39.95,92.69c-14.42,20.52-27.71,33.69-31.52,37.31v64.63c11.75-8.99,39.02-31.75,63.84-66.37
			c5.97-8.49,11.39-16.99,16.27-25.31c1.64-2.88,3.25-5.81,4.82-8.81V236.12z"/>
		<path d="M375.94,738.68c0,0-0.25,0.06-0.68,0.17c-10.24,3.33-22.2,4.37-34.8,4.37v8.33c15.22,0,27.43-0.13,37.7-0.33
			c4.22-0.26,8.56-0.6,13.05-1.02L375.94,738.68z"/>
		<path d="M645.58,257.62c7.59-11.5,21.29-32.23,29.52-44.56c-16.23-6.88-34.31-11.6-53.39-14.67c-4.67,6.05-12.3,16.07-16.93,22.15
			C623.07,229.06,636.42,241.79,645.58,257.62z"/>
		<path d="M507.65,476.34c1.88-2.83,3.81-5.75,5.76-8.73h-0.28l-5.69,8.6L507.65,476.34z"/>
		<path d="M526.92,446.76l-3.87,5.85h0.11C524.4,450.69,525.66,448.74,526.92,446.76z"/>
		<path d="M675.1,213.06c0.09,0.04,0.18,0.08,0.26,0.11c1.93-2.9,3.86-5.79,5.77-8.65l-0.2-0.14
			C679.8,206.03,677.73,209.12,675.1,213.06z"/>
		<path d="M645.92,258.21c9.88-15.34,19.73-30.44,29.44-45.04c-0.09-0.04-0.18-0.08-0.26-0.11c-8.23,12.33-21.93,33.06-29.52,44.56
			C645.69,257.81,645.81,258.01,645.92,258.21z"/>
		<path d="M621.7,198.39c1.39-1.8,2.52-3.25,3.22-4.13l-0.19-0.15c-1.09,1.39-2.18,2.81-3.3,4.24
			C621.52,198.36,621.61,198.38,621.7,198.39z"/>
		<path d="M600.85,225.71c0.05-0.07,1.61-2.13,3.92-5.16c-0.03-0.01-0.06-0.03-0.1-0.04C603.41,222.21,602.13,223.94,600.85,225.71
			L600.85,225.71z"/>
		<path d="M604.68,220.5c0.03,0.01,0.06,0.03,0.1,0.04c4.63-6.08,12.27-16.11,16.93-22.15c-0.09-0.01-0.18-0.03-0.27-0.04
			C616.15,205.18,610.56,212.55,604.68,220.5z"/>
		<path d="M478.92,190.65c-0.3,1.91-0.63,3.81-0.97,5.68c0.19-0.01,0.39-0.01,0.58-0.02c0.33-1.94,0.62-3.81,0.87-5.6L478.92,190.65
			z"/>
		<path d="M405.54,326.82l0.45,0.5c0.09-0.08,0.46-0.42,1.07-1v-1.07C406.56,325.76,406.06,326.29,405.54,326.82z"/>
		<path d="M438.59,289c25.83-36.76,36.04-69.85,39.95-92.69c-0.19,0.01-0.39,0.01-0.58,0.02c-7.91,42.84-26.86,75.69-40.29,93.32
			c-5.82,7.64-16.41,20.82-30.59,35.58v1.07C410.87,322.69,424.16,309.52,438.59,289z"/>
		<path d="M407.07,390.94c-3.65,2.79-5.81,4.26-5.92,4.33l0.09,0.13c1.97-1.35,3.91-2.73,5.83-4.14V390.94z"/>
		<path d="M492.98,288.58c-0.32,0.63-0.65,1.25-0.98,1.87v0.34c0.39-0.7,0.78-1.41,1.16-2.11L492.98,288.58z"/>
		<path d="M487.18,299.26c1.67-2.85,3.28-5.67,4.82-8.47v-0.34C490.43,293.45,488.82,296.38,487.18,299.26z"/>
		<path d="M521.75,209.17c-0.06,0-0.13,0.01-0.19,0.01c-0.84,8.28-1.84,15.69-2.81,18.52l0.09,0.03c1.1-4.14,1.76-7.51,1.98-9.89
			C521,215.86,521.35,212.9,521.75,209.17z"/>
		<path d="M522.85,194.53c0.07,0,0.13-0.01,0.2-0.01c0.16-2.38,0.3-4.89,0.4-7.49l-0.08-0.01
			C523.23,189.28,523.05,191.83,522.85,194.53z"/>
		<path d="M523.04,194.52c-0.07,0-0.13,0-0.2,0.01c-0.35,4.03-0.79,8.45-1.29,12.62c0.06,0,0.13-0.01,0.19-0.01
			C522.18,203.65,522.67,199.38,523.04,194.52z"/>
	</g>
</g>
</svg>
